<?xml version="1.0"?><svg width="401.469" height="413.7" xmlns="http://www.w3.org/2000/svg">
 <title>Confetti</title>

 <g>
  <title>Layer 1</title>
  <g externalResourcesRequired="false" id="g3">
   <path fill="#ff0000" id="path5" d="m313.808014,300.122009c0,-2.196991 1.408997,-11.904999 0,-13.229004c-0.769989,-0.723999 -13.811005,-0.721985 -14.596008,0c-1.29599,1.190002 -0.40799,13.684998 1.080994,13.684998c4.286987,-0.001007 10.027008,0.221008 13.515015,-0.455994"/>
   <path fill="#ff0000" id="path7" d="m200.688995,351.661987c0.153,-4.408997 0.306,-8.817993 0.458008,-13.227997c-11.14502,0 -14.596008,-3.199005 -14.596008,8.571014c0,7.975006 9.031998,4.656982 14.138,4.656982"/>
   <path fill="#ff0000" id="path9" d="m352.118988,140.026993c10.729004,-0.17601 10.679993,-16.470001 0,-16.421005c-10.60498,0.049011 -10.666992,16.137009 0,16.421005"/>
   <path fill="#ff0000" id="path11" d="m266.369995,253.141998c-3.191986,-3.192993 -6.384003,-6.386002 -9.576019,-9.578995c-10.213974,10.679993 -11.089981,9.438004 -0.458984,20.069992c3.345001,-3.497009 6.690002,-6.993988 10.035004,-10.490997"/>
   <path fill="#ff0000" id="path13" d="m134.552994,225.774994c-3.041,-3.193008 -6.082001,-6.387009 -9.123001,-9.580002c-10.572006,10.574997 -11.670006,9.311996 -0.908005,20.070999c3.344009,-3.495987 6.687012,-6.993988 10.031006,-10.490997"/>
   <path fill="#ff0000" id="path15" d="m327.945007,413.692993c11.557007,-0.341003 10.229004,-17.962006 -0.912994,-16.42099c-10.697998,1.480988 -7.075012,16.794006 0.912994,16.42099"/>
   <path fill="#ff0000" id="path17" d="m138.205002,71.610001c9.862,-0.044998 11.177994,-14.938999 1.367996,-16.420002c-11.059998,-1.669998 -12.822998,15.624004 -1.367996,16.420002"/>
   <path fill="#ffaaaa" id="path19" d="m117.68,47.890999c10.584007,-0.299999 10.68,-17.011 0,-16.874998c-10.722,0.136999 -10.105003,15.830999 0,16.874998"/>
   <path fill="#ff0000" id="path21" d="m181.623001,323.382996c-3.041,-3.191986 -6.082001,-6.38501 -9.123001,-9.576996c-3.496994,3.496002 -6.992996,6.993011 -10.488998,10.489014c9.921997,9.450989 11.442001,9.791992 19.612,-0.912018"/>
   <path fill="#ff0000" id="path23" d="m337.522003,105.362c0.152985,-4.408997 0.306,-8.818001 0.458984,-13.226997c-11.144989,0 -14.597992,-3.200005 -14.597992,8.570999c0.001007,7.973999 9.036011,4.655998 14.139008,4.655998"/>
   <path fill="#ff0000" id="path25" d="m213.464005,413.692993c9.860992,-0.045013 11.177002,-14.938995 1.366989,-16.42099c-11.059998,-1.669006 -12.822998,15.625 -1.366989,16.42099"/>
   <path fill="#ff0000" id="path27" d="m104.904999,406.394989c0.153,-4.408997 0.306,-8.816986 0.459,-13.22699c-11.144997,0 -14.597,-3.199005 -14.597,8.570984c0.000999,7.97403 9.037003,4.656006 14.138,4.656006"/>
   <path fill="#ff0000" id="path29" d="m145.955994,87.485001c-10.354004,-10.355003 -9.202011,-9.045998 -19.612007,0.913002c3.193001,3.193001 6.387001,6.385994 9.581001,9.578995c3.343018,-3.498001 6.687012,-6.994995 10.031006,-10.491997"/>
   <path fill="#ffaaaa" id="path31" d="m311.069,294.19101c0,-2.242004 1.444,-12.355988 0,-13.68399c-0.791992,-0.727997 -13.806,-0.727997 -14.597992,0c-0.606018,0.557983 -0.606018,13.125977 0,13.68399c1.774994,1.630981 11.951996,0 14.597992,0"/>
   <path fill="#ffaaaa" id="path33" d="m197.953995,345.277008c0.151001,-4.408997 0.302994,-8.817993 0.455002,-13.227997c-11.144012,0 -14.59201,-3.197998 -14.59201,8.570984c-0.000992,7.973999 9.015015,4.657013 14.137009,4.657013"/>
   <path fill="#ffaaaa" id="path35" d="m349.838013,133.184998c11.429993,-0.500992 10.321991,-18.083 -0.912994,-16.419998c-10.77002,1.594002 -6.989014,16.768997 0.912994,16.419998"/>
   <path fill="#ffaaaa" id="path37" d="m267.283997,245.843002c-10.354004,-10.354004 -9.201996,-9.044998 -19.612,0.912994c3.192001,3.193008 6.384003,6.387009 9.575989,9.580002c3.124023,-3.125 8.235016,-8.031006 10.036011,-10.492996"/>
   <path fill="#ffaaaa" id="path39" d="m135.923996,218.070572c-10.637993,-9.554977 -9.406998,-8.769104 -19.615997,0.861359c3.194,3.011383 6.388,6.024689 9.582001,9.036087c3.343994,-3.299164 6.690002,-6.598312 10.033997,-9.897446"/>
   <path fill="#ffaaaa" id="path41" d="m153.710007,186.095001c2.845001,-20.673004 0.152008,-36.637009 19.158005,-49.945007c6.378998,-4.466995 13.362991,-8.455994 21.207993,-9.576996c12.437012,-1.778 11.173004,-0.753998 11.173004,-14.824997c-42.629013,3.271996 -61.490005,36.651993 -51.539001,74.347"/>
   <path fill="#ffaaaa" id="path43" d="m168.761002,212.548004c6.953003,-17.235001 60.444,-16.439011 59.753006,4.561996c15.070999,-7.380997 -3.609009,-22.373001 -12.940002,-24.528c-20.949005,-4.841003 -38.138,0.005005 -46.813004,19.966003"/>
   <path fill="#ff0000" id="path45" d="m228.514999,224.863007c-14.884995,26.845001 -70.393997,10.416 -65.222992,-21.893997c9.056,27.878998 55.269989,30.542984 71.150986,8.210007c-1.723999,4.112991 -4.597992,11.140991 -5.927994,13.68399"/>
   <path fill="#ffaaaa" id="path47" d="m162.378006,193.391006c-0.317993,-19.00499 50.119003,-36.094009 57.469009,-16.875c11.741989,-12.237 -11.792007,-18.811996 -20.695007,-18.125992c-22.234009,1.71199 -34.719009,14.015991 -36.774002,35.000992"/>
   <path fill="#ff0000" id="path49" d="m222.585999,184.268997c-1.126999,13.096008 -18.593994,19.442001 -28.906006,23.126999c-17.473999,6.244003 -35.21199,-3.223999 -39.969986,-20.847c17.650986,18.803009 65.720993,11.665009 69.329987,-17.332001c0,4.803009 0.291,11.059998 -0.453995,15.052002"/>
   <path fill="#ff0000" id="path51" d="m270.47699,302.402008c-10.709991,-24.218994 -32.548996,-22.652985 -54.278,-29.192993c-24.688004,-7.429993 -41.001007,-24.764008 -49.259003,-49.259003c-2.225998,27.473999 18.466995,53.290009 43.279007,61.559998c23.384995,7.792999 57.561981,7.893005 60.259003,40.609009c-0.001007,-7.905029 -0.001007,-15.811005 -0.001007,-23.71701"/>
   <path fill="#ffaaaa" id="path53" d="m327.118988,406.85199c10.562988,-0.276001 10.717987,-16.424011 0,-16.420013c-10.711975,0.004028 -10.556976,16.137024 0,16.420013"/>
   <path fill="#ffaaaa" id="path55" d="m135.923996,64.768997c11.718002,-0.247993 10.496002,-18.197998 -0.912994,-16.420998c-10.748001,1.674 -7.001999,16.645004 0.912994,16.420998"/>
   <path fill="#ff0000" id="path57" d="m115.399002,40.592999c10.928001,0.561001 11.000999,-16.354998 0.454994,-16.417999c-11.754997,-0.07 -8.892998,18.096001 -0.454994,16.417999"/>
   <path fill="#ffaaaa" id="path59" d="m181.990005,316.085999c-3.192001,-3.191986 -6.384003,-6.385986 -9.576996,-9.578003c-10.214996,10.677002 -11.089005,9.436005 -0.459,20.067017c3.345993,-3.496002 6.690994,-6.993011 10.035995,-10.489014"/>
   <path fill="#ffaaaa" id="path61" d="m334.786987,98.976997c0.151001,-4.408997 0.303009,-8.818001 0.45401,-13.226997c-11.144012,0 -14.59201,-3.197998 -14.59201,8.570999c0,7.972 9.015015,4.655998 14.138,4.655998"/>
   <path fill="#ff0000" id="path63" d="m26.458,66.136002c-10.638,-10.128002 -9.408001,-9.296001 -19.616,0.913002c9.919999,9.917999 10.574,10.706993 19.616,-0.913002"/>
   <path fill="#ff0000" id="path65" d="m311.980988,36.945c-10.634003,-10.129999 -9.403992,-9.293999 -19.612,0.913002c9.917999,9.917999 10.569,10.703999 19.612,-0.913002"/>
   <path fill="#ffaaff" id="path67" d="m52.911999,270.929993c2.551003,-18.753998 -0.768997,-37.414001 17.718998,-49.175003c6.642006,-4.225006 14.361,-10.119995 22.646004,-10.119995c12.559998,0 11.173996,-2.814011 11.173996,-15.05101c-41.418995,3.552017 -63.257996,35.872009 -51.538998,74.346008"/>
   <path fill="#FFB3FF" id="path69" d="m67.961998,297.38501c6.455002,-17.743011 60.603004,-15.55899 59.749001,4.562012c14.686996,-7.303009 -3.191002,-21.232025 -11.857002,-24.176025c-21.144997,-7.182983 -39.918999,1.208008 -47.891998,19.614014"/>
   <path fill="#ff00ff" id="path71" d="m127.710999,310.154999c-17.392998,25.161011 -69.709999,10.940002 -65.223999,-21.893005c8.972,27.382019 54.735001,30.046021 70.697006,8.209991c-1.824005,4.561005 -3.64801,9.123016 -5.473007,13.683014"/>
   <path fill="#FFB3FF" id="path73" d="m61.575001,278.22699c0.550999,-18.425995 50.049999,-36.296997 57.472996,-16.873993c11.608009,-11.799011 -11.150993,-18.409012 -19.612,-18.244003c-20.037994,0.391006 -38.823997,13.841019 -37.860996,35.117996"/>
   <path fill="#ff00ff" id="path75" d="m121.782997,269.104004c-4.409996,32.035004 -60.204998,31.770996 -68.871006,2.281006c19.298008,20.578003 61.353008,10.550995 69.330006,-16.421005c-0.015999,0.289993 -0.348999,10.513992 -0.459,14.139999"/>
   <path fill="#ff00ff" id="path77" d="m169.220001,387.694c-4.044006,-23.368988 -34.309006,-24.196014 -51.769005,-28.962006c-26.080994,-7.118988 -42.087997,-24.393982 -51.313995,-49.488007c-1.528999,28.549011 19.914001,55.389008 46.752998,62.715027c25.371002,6.924988 50.171997,7.869995 56.783997,38.996979c0,-7.326996 1.016006,-16.824982 -0.453995,-23.261993"/>
   <path fill="#ffffaa" id="path79" d="m396.362,329.312988c2.781006,26.877014 -8.041992,54.537994 -39.223999,54.733002c0.455994,4.104004 0.911011,8.209015 1.367004,12.312988c33.070007,-7.383972 52.893005,-33.252991 37.856995,-67.04599"/>
   <path fill="#ffffaa" id="path81" d="m381.765991,307.875c-2.709015,16.548004 -48.54599,17.946014 -50.627014,0.911987c-11.724976,7.019012 4.587006,17.736023 11.857025,19.612c16.321991,4.212006 35.906006,-2.243988 38.769989,-20.523987"/>
   <path fill="#ffff00" id="path83" d="m330.22699,301.48999c16.479004,-20.683014 56.033997,-14.837006 57.467987,14.140015c-11.447998,-18.71402 -50.030975,-24.674011 -60.661987,-1.824005c1.223022,-3.979004 2.886017,-8.661011 3.194,-12.31601"/>
   <path fill="#ffffaa" id="path85" d="m388.606995,323.838989c3.423981,16.774994 -38.229004,32.980011 -47.43399,18.700989c-6.92099,9.697021 8.023987,15.161011 15.963989,14.368011c17.610992,-1.760986 34.882019,-13.550995 31.470001,-33.069"/>
   <path fill="#ffff00" id="path87" d="m337.980988,336.154999c5.14801,-25.438995 50.044006,-34.050995 58.834991,-6.842987c-17.041992,-14.404999 -55.529999,-5.432007 -57.467987,19.610992c-0.291992,-4.098999 -0.541992,-9.450012 -1.367004,-12.768005"/>
   <path fill="#ffff00" id="path89" d="m289.177002,239.001999c9.552002,16.996994 23.994995,17.584 41.049988,20.069992c25.055023,3.653015 42.070007,15.652008 52.451996,39.223999c-1.138977,-25.408997 -20.299988,-44.437988 -44.013977,-49.715988c-20.503998,-4.563004 -45.244995,-2.574005 -50.856018,-29.190002c0.572021,6.164001 2.065002,14.266998 1.368011,19.612"/>
   <path fill="#aad4ff" id="path91" d="m322.471985,137.289993c0.221008,15.660004 2.990997,29.393997 -9.307983,41.69101c-8.029999,8.029984 -18.628998,12.856003 -29.917023,13.041992c0.305023,4.105011 0.609009,8.210007 0.914001,12.315994c32.861023,-7.488983 53.585022,-32.768982 38.311005,-67.048996"/>
   <path fill="#aad4ff" id="path93" d="m307.875,115.851997c-2.723999,16.696999 -48.536987,17.993996 -50.627014,0.913002c-12.020981,6.937004 3.780029,17.589005 11.403015,19.612c16.221985,4.302994 36.377991,-2.244003 39.223999,-20.525002"/>
   <path fill="#007fff" id="path95" d="m256.334991,109.466003c14.610992,-20.123001 59.846985,-15.225006 57.014008,14.597c-9.039001,-23.970001 -48.563019,-20.816002 -60.662003,-2.280006c1.255997,-4.085999 2.587997,-8.207001 3.647995,-12.316994"/>
   <path fill="#aad4ff" id="path97" d="m314.261993,131.815002c4.584991,16.899994 -37.929993,32.918991 -46.977997,18.701004c-8.526001,10.616989 10.050995,14.870987 17.785004,14.139999c15.042999,-1.421005 35.686005,-15.393005 29.192993,-32.841003"/>
   <path fill="#007fff" id="path99" d="m264.089996,144.130997c5.828003,-24.638 50.157013,-34.92701 58.381989,-6.841003c-16.718994,-17.528992 -53.938995,-3.140991 -57.468994,19.611008c-0.147003,-4.085999 -0.210999,-9.475006 -0.912994,-12.770004"/>
   <path fill="#007fff" id="path101" d="m215.285004,46.98c8.188004,17.092999 24.466003,17.714001 40.595993,20.067997c25.076004,3.660004 42.343002,15.609001 52.907028,39.227005c-1.205017,-26.778999 -21.870026,-45.035 -46.52301,-50.172001c-20.388,-4.249001 -42.367004,-3.130001 -48.347,-28.737001c0.455978,6.538 0.91098,13.076002 1.366989,19.614"/>
   <path fill="#ffffaa" id="path103" d="m108.557999,109.922997c2.803001,26.963997 -8.063995,54.536003 -39.228996,54.733009c0.456001,4.104996 0.911995,8.209991 1.367996,12.315994c33.006004,-7.389999 52.985001,-33.091995 37.861,-67.049004"/>
   <path fill="#ffffaa" id="path105" d="m93.960999,88.485001c-2.75,16.739998 -48.522999,17.983002 -50.630997,0.913002c-12.066002,7.097 4.358997,17.676994 11.861,19.612c16.241997,4.188995 35.925995,-2.306999 38.769997,-20.525002"/>
   <path fill="#ffff00" id="path107" d="m42.422001,82.099998c15.561001,-19.536999 59.199001,-15.823997 57.013996,14.596001c-8.490997,-22.448997 -50.015999,-22.499001 -60.207996,-2.280998c1.223999,-3.978004 2.887001,-8.661003 3.194,-12.315002"/>
   <path style="vector-effect: non-scaling-stroke; " fill="#ffffaa" id="path109" d="m100.803001,104.448997c3.799995,17.042 -37.998001,32.74601 -47.437,18.701004c-7.82,10.836998 10.263,14.851997 17.789997,14.139992c17.241005,-1.630997 32.749001,-14.576996 29.647003,-32.840996"/>
   <path fill="#ffff00" id="path111" d="m50.172001,116.764999c6.291,-26.566002 47.943996,-32.399002 58.84,-6.842003c-16.848,-14.238998 -56.145,-5.376999 -57.468002,19.612007c-0.292999,-4.099007 -0.542999,-9.461006 -1.371998,-12.770004"/>
   <path fill="#ffff00" id="path113" d="m1.372,19.614c9.538,16.998999 24.003999,17.582998 41.050001,20.067999c25.591,3.730999 41.207996,15.881001 52.452999,39.225998c-1.168999,-25.352997 -20.333,-44.464996 -44.015999,-49.716997c-20.514002,-4.546999 -45.235001,-2.59 -50.859001,-29.191c0.574,6.164 2.068,14.269 1.372,19.614"/>
   <path fill="#ffaaaa" id="path115" d="m211.182999,406.85199c11.718002,-0.247986 10.496994,-18.197998 -0.912994,-16.420013c-10.749008,1.674011 -7.003006,16.642029 0.912994,16.420013"/>
   <path fill="#ffaaaa" id="path117" d="m102.169998,400.01001c0.151001,-4.408997 0.303001,-8.816986 0.455002,-13.22699c-11.142998,0 -14.592003,-3.197998 -14.592003,8.570984c0,7.971985 9.016006,4.656006 14.137001,4.656006"/>
  </g>
 </g>
</svg>